<?xml version="1.0" encoding="utf-8"?>
<!-- Generator: Adobe Illustrator 23.0.1, SVG Export Plug-In . SVG Version: 6.00 Build 0)  -->
<svg version="1.1" id="Слой_1" xmlns="http://www.w3.org/2000/svg" xmlns:xlink="http://www.w3.org/1999/xlink" x="0px" y="0px"
	 viewBox="0 0 77.8 77.8" style="enable-background:new 0 0 77.8 77.8;" xml:space="preserve">
<style type="text/css">
	.st0{fill-rule:evenodd;clip-rule:evenodd;fill:url(#Oval_1_);stroke:url(#Oval_2_);stroke-width:4;}
	.st1{fill:none;stroke:#000000;stroke-width:2;}
	.st2{fill-rule:evenodd;clip-rule:evenodd;}
</style>
<g id="Page-1">
	<g id="flower-01" transform="translate(2.000000, 2.000000)">
		
			<linearGradient id="Oval_1_" gradientUnits="userSpaceOnUse" x1="-255.5041" y1="452.7136" x2="-256.5041" y2="451.7136" gradientTransform="matrix(73.8 0 0 -73.8 18930 33410.2656)">
			<stop  offset="0" style="stop-color:#FAD0C4"/>
			<stop  offset="1" style="stop-color:#FF9A9E"/>
		</linearGradient>
		
			<linearGradient id="Oval_2_" gradientUnits="userSpaceOnUse" x1="-255.504" y1="452.7137" x2="-256.504" y2="451.7137" gradientTransform="matrix(73.8 0 0 -73.8 18930 33410.2656)">
			<stop  offset="0" style="stop-color:#FAD0C4"/>
			<stop  offset="1" style="stop-color:#FF9A9E"/>
		</linearGradient>
		<circle id="Oval" class="st0" cx="36.9" cy="36.9" r="36.9"/>
		<path id="Path" class="st1" d="M37.1,17.2c0,0,20.6,16.9-0.1,36.2C37,53.4,17.8,38,37.1,17.2z"/>
		<path class="st1" d="M55,28.3c0,0-15,6.1-18,19.1c-2.9-13-17.9-19.1-17.9-19.1c-4.2,24.7,18,26,18,26S59.2,53,55,28.3z"/>
		<path class="st1" d="M11,44.5c0,0,20.6-4.8,26,9.9C37,54.3,17.9,61.9,11,44.5z"/>
		<path class="st1" d="M63.1,44.5c0,0-20.6-4.8-26,9.9C37,54.3,56.1,61.9,63.1,44.5z"/>
		<circle class="st2" cx="37" cy="12.9" r="1.5"/>
		<circle class="st2" cx="37" cy="59.2" r="1.5"/>
		<circle class="st2" cx="52.5" cy="24.7" r="1.5"/>
		<circle class="st2" cx="21.6" cy="24.7" r="1.5"/>
		<path class="st1" d="M36.8,36c0,0-3.5,5.9,0.2,9C37,45,41.2,39.8,36.8,36z"/>
	</g>
</g>
</svg>
