<svg xmlns="http://www.w3.org/2000/svg" viewBox="0 0 147.6 62.4"><defs><style>.a{fill:#000000;}.b{fill:#000000;}.c{fill:#000000;}.d{fill:#000000;}</style></defs><title>logo_new_fin</title><polygon class="a" points="0 15.81 0 27.39 27.2 11.47 27.2 0 0 15.81"/><polygon class="b" points="54.21 15.6 27.2 0 27.2 0 27.2 11.47 38.38 18.11 0 39.99 0 46.86 6.03 50.07 44.36 26.74 44.34 40.91 54.21 46.74 54.21 15.6"/><polygon class="c" points="44.36 40.91 44.36 40.92 17.35 56.57 27.2 62.4 54.21 46.8 54.21 46.74 44.36 40.91"/><path class="d" d="M347.88,91.46h0c-2.32-.87-7.86-1.36-7.86,2.4,0,3.56,5.52,3.16,7.86,2.54V91.46Zm-5.41-5.37a22.55,22.55,0,0,1,5.59.75V85.1c0-2.54-3-3.39-5-3.39A7.82,7.82,0,0,0,337.91,84l-3.2-3.44a11.31,11.31,0,0,1,8.81-4.1c4.9,0,10.87,2.78,10.87,8.66V100c-3.68,1.39-9.79,2.25-13.78,1.51-4.59-.85-6.79-3.57-6.79-7.44C333.81,88.45,338,86.09,342.47,86.09Z" transform="translate(-206.78 -53.89)"/><rect class="d" x="65" y="15.62" width="7.28" height="31.13"/><path class="d" d="M284.31,77.34V69.58h6.59l0.42,7.76h4.76v5.4h-4.76v9.85a3.3,3.3,0,0,0,.79,2.36,2.91,2.91,0,0,0,2.23.83,4.51,4.51,0,0,0,2.83-.9l1.89,4.95a7.21,7.21,0,0,1-2.54,1.15,12.89,12.89,0,0,1-3.17.38,9.42,9.42,0,0,1-6.68-2.2q-2.36-2.2-2.36-6.48V77.34Z" transform="translate(-206.78 -53.89)"/><path class="d" d="M301.5,87.14V69.51h7.28V86.87q0,8.45,7,8.45c5.34,0,7-3.64,7-8.45V69.51H330V87.14c0,9.11-5.1,14.39-14.25,14.39S301.5,96.25,301.5,87.14" transform="translate(-206.78 -53.89)"/></svg>