<?xml version="1.0" encoding="utf-8"?>
<!-- Generator: Adobe Illustrator 23.0.1, SVG Export Plug-In . SVG Version: 6.00 Build 0)  -->
<svg version="1.1" id="Слой_1" xmlns="http://www.w3.org/2000/svg" xmlns:xlink="http://www.w3.org/1999/xlink" x="0px" y="0px"
	 viewBox="0 0 317.2 276.2" style="enable-background:new 0 0 317.2 276.2;" xml:space="preserve">
<style type="text/css">
	.st0{fill-rule:evenodd;clip-rule:evenodd;fill:url(#path-2_1_);}
	.st1{fill-rule:evenodd;clip-rule:evenodd;fill:url(#Path-3_1_);}
	.st2{fill-rule:evenodd;clip-rule:evenodd;fill:url(#path-4_1_);}
</style>
<g id="Page-1">
	<g id="Artboard">
		
			<linearGradient id="path-2_1_" gradientUnits="userSpaceOnUse" x1="-274.1874" y1="1.7723" x2="-275.1874" y2="2.7723" gradientTransform="matrix(318 0 0 277 87492 -506.7614)">
			<stop  offset="0" style="stop-color:#FAD0C4"/>
			<stop  offset="1" style="stop-color:#FF9A9E"/>
		</linearGradient>
		<path id="path-2" class="st0" d="M31.1-0.8L318-0.5v188.9c-118.4,45.9-191.9,74.1-220.4,84.8c-13,4.9-34.5,3.5-49.3-1.7
			c-11.1-3.9-23-10.6-33.8-25.3c-3.4-4.6-10.8-15.6-13.7-29.7c-1.1-5.5-1-14.8,0.3-28.1L31.1-0.8z"/>
		
			<linearGradient id="Path-3_1_" gradientUnits="userSpaceOnUse" x1="-272.2427" y1="5.4827" x2="-273.2427" y2="6.4827" gradientTransform="matrix(97.6046 0 0 98 26682.2715 -544.9039)">
			<stop  offset="0" style="stop-color:#FAD0C4"/>
			<stop  offset="1" style="stop-color:#FF9A9E"/>
		</linearGradient>
		<path id="Path-3" class="st1" d="M31.1-0.8C31-0.2,31,0.3,30.9,0.6c-0.1,0.9-0.2,1.6-0.3,2c-0.5,2.9-0.8,5.1-1,6.4
			c-0.5,3-0.8,5.2-1.1,6.7c-0.6,3.6-1,6.2-1.3,7.9c-0.5,2.9-0.8,5.2-1,6.6c-0.3,2-0.6,3.6-0.8,4.9c-0.6,3.4-1,6.1-1.3,8
			c-0.5,3.1-0.9,5.6-1.2,7.5c-0.6,3.6-1,6.5-1.4,8.9c-0.4,2.5-0.8,4.9-1.1,7.1c-0.2,1.5-0.6,3.7-1.1,6.6C36.2,88,49.1,95.9,57,97
			c6.2,0.8,15-0.1,22.4-3.9c6.7-3.4,12.1-9.5,16.2-13.6c5.8-5.8,12.9-32.5,21.3-80.1c-19.4,0-33.9,0-43.6,0
			C64-0.8,49.9-0.8,31.1-0.8z"/>
		
			<linearGradient id="path-4_1_" gradientUnits="userSpaceOnUse" x1="-272.3488" y1="3.2541" x2="-273.3488" y2="4.2541" gradientTransform="matrix(107 0 0 166.4366 29467 -501.2979)">
			<stop  offset="0" style="stop-color:#FAD0C4"/>
			<stop  offset="1" style="stop-color:#FF9A9E"/>
		</linearGradient>
		<path id="path-4" class="st2" d="M317.9,28.2l0.1,160.2c-2.1,0.8-3.7,1.4-4.6,1.8c-2.9,1.1-5.2,2-6.9,2.7c-1,0.4-2.5,1-4.5,1.8
			c-56.6-43.1-86.6-74.2-90.3-92.3c-3.4-16.4,8.5-35.6,15.7-44.4C232.2,52,262.4,42.1,317.9,28.2z"/>
	</g>
</g>
</svg>
